<?xml version="1.0" encoding="UTF-8" standalone="no"?>
<!-- Created with Inkscape (http://www.inkscape.org/) -->
<svg
   xmlns:dc="http://purl.org/dc/elements/1.1/"
   xmlns:cc="http://web.resource.org/cc/"
   xmlns:rdf="http://www.w3.org/1999/02/22-rdf-syntax-ns#"
   xmlns:svg="http://www.w3.org/2000/svg"
   xmlns="http://www.w3.org/2000/svg"
   xmlns:sodipodi="http://sodipodi.sourceforge.net/DTD/sodipodi-0.dtd"
   xmlns:inkscape="http://www.inkscape.org/namespaces/inkscape"
   width="744.09448819"
   height="1052.3622047"
   id="svg6104"
   sodipodi:version="0.32"
   inkscape:version="0.45"
   sodipodi:docbase="/home/andreas/project/nemein"
   sodipodi:docname="error.svg"
   inkscape:output_extension="org.inkscape.output.svg.inkscape"
   inkscape:export-filename="/home/andreas/project/nemein/error.png"
   inkscape:export-xdpi="90"
   inkscape:export-ydpi="90"
   sodipodi:modified="TRUE">
  <defs
     id="defs6106" />
  <sodipodi:namedview
     id="base"
     pagecolor="#ffffff"
     bordercolor="#666666"
     borderopacity="1.0"
     gridtolerance="10000"
     guidetolerance="10"
     objecttolerance="10"
     inkscape:pageopacity="0.0"
     inkscape:pageshadow="2"
     inkscape:zoom="0.35"
     inkscape:cx="386.8881"
     inkscape:cy="793.09926"
     inkscape:document-units="px"
     inkscape:current-layer="layer1"
     inkscape:window-width="872"
     inkscape:window-height="626"
     inkscape:window-x="4"
     inkscape:window-y="51" />
  <metadata
     id="metadata6109">
    <rdf:RDF>
      <cc:Work
         rdf:about="">
        <dc:format>image/svg+xml</dc:format>
        <dc:type
           rdf:resource="http://purl.org/dc/dcmitype/StillImage" />
      </cc:Work>
    </rdf:RDF>
  </metadata>
  <g
     inkscape:label="Layer 1"
     inkscape:groupmode="layer"
     id="layer1">
    <path
       sodipodi:nodetypes="cccccccc"
       id="path6299"
       d="M 316.20528,256.81659 L 244.36442,276.91556 L 170.44385,415.5924 L 469.77536,446.82703 L 662.38869,399.97508 L 594.08217,289.92994 L 472.3783,264.62525 L 316.20528,256.81659 z "
       style="fill:#c17d11;fill-opacity:1;fill-rule:evenodd;stroke:none;stroke-width:1px;stroke-linecap:butt;stroke-linejoin:miter;stroke-opacity:1" />
    <path
       style="fill:#fff9c4;fill-opacity:1;stroke:none;stroke-width:0.5;stroke-linecap:round;stroke-linejoin:round;stroke-miterlimit:4;stroke-dashoffset:0;stroke-opacity:1"
       d="M 389.92116,167.91508 L 458.88155,167.91508 C 467.29048,167.91508 503.34583,223.21633 503.34583,231.5758 L 500.48869,354.22865 C 500.48869,362.58811 493.71905,369.31793 485.31012,369.31793 L 332.7783,369.31793 C 324.36937,369.31793 317.59973,362.58811 317.59973,354.22865 L 338.31402,217.29009 C 338.31402,208.93062 381.51223,167.91508 389.92116,167.91508 z "
       id="rect6322"
       sodipodi:nodetypes="ccccccccc" />
    <path
       sodipodi:nodetypes="ccccccccc"
       style="fill:#c17d11;fill-rule:evenodd;stroke:none;stroke-width:1px;stroke-linecap:butt;stroke-linejoin:miter;stroke-opacity:1"
       d="M 337.23872,189.62713 L 359.89807,132.53289 L 423.08579,91.66102 L 485.87865,138.93823 L 503.9519,196.64008 L 448.76086,229.67523 L 377.29258,225.58815 L 330.13001,205.06363 L 337.23872,189.62713 z "
       id="path6238" />
    <path
       sodipodi:nodetypes="cccccccccccccccccccccccccccccccccccc"
       id="path6336"
       d="M 337.45583,211.42408 L 286.9229,224.28053 L 314.25309,234.69212 L 286.27222,245.10364 L 319.45889,250.96019 L 292.77937,278.29038 L 312.95166,285.44829 L 296.03284,318.63503 L 317.26984,304.97558 L 297.53841,345.33379 L 316.74445,348.96857 L 307.44924,370.32276 L 319.25475,365.28284 L 306.01699,380.80767 L 446.34939,466.34864 L 459.74494,425.53027 L 470.91886,403.47117 L 498.40706,429.90829 L 509.46933,381.75498 L 530.29237,362.23337 L 520.08492,345.20289 L 537.38491,337.45968 L 523.37126,296.64138 L 537.75259,299.00177 L 516.62731,250.30936 L 542.656,247.05582 L 521.83296,232.08926 L 540.05314,221.67766 L 507.51715,211.26614 L 498.31458,221.67766 L 489.47407,309.43246 L 463.08316,331.93817 L 412.24238,293.92679 L 363.54443,326.78419 L 331.69177,313.11352 L 337.45583,211.42408 z "
       style="fill:#2e3436;fill-opacity:1;fill-rule:evenodd;stroke:none;stroke-width:1px;stroke-linecap:butt;stroke-linejoin:miter;stroke-opacity:1" />
    <path
       id="path6328"
       d="M 402.10044,204.75892 L 387.78456,306.27133 L 430.73214,303.66847 L 422.92349,202.15605 L 402.10044,204.75892 z "
       style="fill:#888a85;fill-opacity:1;fill-rule:evenodd;stroke:none;stroke-width:1px;stroke-linecap:butt;stroke-linejoin:miter;stroke-opacity:1"
       sodipodi:nodetypes="ccccc" />
    <path
       id="path6338"
       d="M 370.21513,340.10875 L 417.71776,332.30017 L 462.31864,345.19969 L 462.44611,353.5997 L 370.21513,340.10875 z "
       style="fill:#ffffff;fill-opacity:1;fill-rule:evenodd;stroke:none;stroke-width:1px;stroke-linecap:butt;stroke-linejoin:miter;stroke-opacity:1"
       sodipodi:nodetypes="ccccc" />
    <path
       id="path6342"
       d="M 329.80627,244.81496 L 362.70937,242.21202 L 404.32214,268.24086 L 359.80616,259.13077 L 328.83856,265.638 L 329.80627,244.81496 z "
       style="fill:#2e3436;fill-opacity:1;fill-rule:evenodd;stroke:none;stroke-width:1px;stroke-linecap:butt;stroke-linejoin:miter;stroke-opacity:1" />
    <path
       id="path6344"
       d="M 430.35098,268.24086 L 454.37632,239.60916 L 504.516,231.8005 L 509.73892,252.62354 L 465.86662,253.92505 L 430.35098,268.24086 z "
       style="fill:#2e3436;fill-opacity:1;fill-rule:evenodd;stroke:none;stroke-width:1px;stroke-linecap:butt;stroke-linejoin:miter;stroke-opacity:1"
       sodipodi:nodetypes="cccccc" />
    <path
       sodipodi:nodetypes="cccccccccc"
       id="path6324"
       d="M 318.99318,231.95844 L 363.19942,247.57575 L 407.40565,247.57575 L 484.18505,239.76709 L 516.75806,229.35557 L 512.10485,187.70942 L 437.65209,205.9296 L 374.83271,205.9296 L 321.31983,190.31228 L 318.99318,231.95844 z "
       style="fill:#888a85;fill-opacity:1;fill-rule:evenodd;stroke:none;stroke-width:1px;stroke-linecap:butt;stroke-linejoin:miter;stroke-opacity:1" />
    <path
       style="fill:#2e3436;fill-opacity:1;fill-rule:evenodd;stroke:none;stroke-width:1px;stroke-linecap:butt;stroke-linejoin:miter;stroke-opacity:1"
       d="M 396.41546,281.03201 L 374.94167,269.96974 L 332.64483,269.96974 L 354.7693,275.82628 L 330.0419,280.38133 L 356.07073,280.38133 L 339.15199,295.34789 L 369.08519,278.42915 L 396.41546,281.03201 z "
       id="path6412" />
    <path
       style="fill:#2e3436;fill-opacity:1;fill-rule:evenodd;stroke:none;stroke-width:1px;stroke-linecap:butt;stroke-linejoin:miter;stroke-opacity:1"
       d="M 435.30636,276.66755 L 456.1294,268.85889 L 489.96689,263.00241 L 473.6989,269.50957 L 463.2873,275.36612 L 480.8568,276.01679 L 485.41185,281.87327 L 468.4931,277.96898 L 476.95244,290.98336 L 461.33519,281.87327 L 435.30636,276.66755 z "
       id="path6414" />
    <path
       sodipodi:type="arc"
       style="fill:#888a85;fill-opacity:1;stroke:#555753;stroke-width:2.77139187;stroke-linecap:round;stroke-linejoin:miter;stroke-miterlimit:4;stroke-dasharray:none;stroke-dashoffset:0;stroke-opacity:1"
       id="path6263"
       sodipodi:cx="563.4126"
       sodipodi:cy="231.7943"
       sodipodi:rx="8.8388348"
       sodipodi:ry="8.8388348"
       d="M 572.25143 231.7943 A 8.8388348 8.8388348 0 1 1  554.57376,231.7943 A 8.8388348 8.8388348 0 1 1  572.25143 231.7943 z"
       transform="matrix(-2.6272696,0,0,2.6322357,1893.6186,-381.84389)" />
    <path
       style="fill:none;fill-rule:evenodd;stroke:#babdb6;stroke-width:7.28807116px;stroke-linecap:butt;stroke-linejoin:miter;stroke-opacity:1"
       d="M 424.72255,239.11452 L 420.40218,216.93087 L 411.76144,227.21106 L 404.74084,214.22546 L 398.26029,235.32705"
       id="path6265" />
    <path
       sodipodi:nodetypes="ccccccccc"
       id="path6293"
       d="M 155.54688,478.50376 L 239.95274,403.22279 L 367.70213,353.03553 L 497.73277,364.4418 L 604.95101,419.19147 L 671.10699,487.62864 L 688.38079,599.38364 L 132.96443,593.21713 L 155.54688,478.50376 z "
       style="fill:#888a85;fill-opacity:1;fill-rule:evenodd;stroke:none;stroke-width:1px;stroke-linecap:butt;stroke-linejoin:miter;stroke-opacity:1" />
    <path
       id="path6295"
       d="M 165.23812,411.68811 L 183.4583,487.17168 L 292.77937,398.67365 L 240.72177,362.23329 L 165.23812,411.68811 z "
       style="fill:#fff9c4;fill-opacity:1;fill-rule:evenodd;stroke:none;stroke-width:1px;stroke-linecap:butt;stroke-linejoin:miter;stroke-opacity:1" />
    <path
       id="path6297"
       d="M 594.71375,363.53473 L 550.46473,418.19526 L 633.75699,475.45866 L 693.62329,436.41544 L 662.38879,392.16642 L 594.71375,363.53473 z "
       style="fill:#fff9c4;fill-opacity:1;fill-rule:evenodd;stroke:none;stroke-width:1px;stroke-linecap:butt;stroke-linejoin:miter;stroke-opacity:1" />
    <path
       style="fill:#5b5b5b;fill-opacity:1;fill-rule:evenodd;stroke:none;stroke-width:1px;stroke-linecap:butt;stroke-linejoin:miter;stroke-opacity:1"
       d="M 281.17691,388.30499 L 366.67014,352.41393 L 500.15255,363.30224 L 550.56123,390.72455 L 545.72202,394.75726 L 496.11977,368.14144 L 369.08978,358.05978 L 282.78998,393.14419 L 281.17691,388.30499 z "
       id="path6419"
       sodipodi:nodetypes="ccccccccc" />
    <path
       style="fill:#ffffff;fill-opacity:1;fill-rule:evenodd;stroke:none;stroke-width:1px;stroke-linecap:butt;stroke-linejoin:miter;stroke-opacity:1"
       d="M 369.88979,340.10882 L 368.26295,354.0993 L 392.99036,354.0993 L 389.08606,341.41025 L 369.88979,340.10882 z "
       id="path6421" />
    <path
       style="fill:#ffffff;fill-opacity:1;fill-rule:evenodd;stroke:none;stroke-width:1px;stroke-linecap:butt;stroke-linejoin:miter;stroke-opacity:1"
       d="M 399.49758,341.08492 L 398.84683,359.63043 L 423.2489,355.40073 L 422.59815,345.31455 L 399.49758,341.08492 z "
       id="path6423"
       sodipodi:nodetypes="ccccc" />
    <path
       style="fill:#ffffff;fill-opacity:1;fill-rule:evenodd;stroke:none;stroke-width:1px;stroke-linecap:butt;stroke-linejoin:miter;stroke-opacity:1"
       d="M 433.66042,344.98921 L 432.68433,359.30509 L 457.41173,359.30509 L 454.8088,348.8935 L 433.66042,344.98921 z "
       id="path6425" />
    <path
       style="fill:none;fill-rule:evenodd;stroke:none;stroke-width:1px;stroke-linecap:butt;stroke-linejoin:miter;stroke-opacity:1"
       d="M 360.45429,344.66387 L 370.21513,331.64941 L 415.44024,323.84076 L 466.52182,333.92694 L 482.78982,352.14711 L 360.45429,344.66387 z "
       id="path6443" />
    <path
       style="fill:#5b5b5b;fill-opacity:1;fill-rule:evenodd;stroke:none;stroke-width:1px;stroke-linecap:butt;stroke-linejoin:miter;stroke-opacity:1"
       d="M 169.47118,585.50395 L 208.18505,487.10609 L 343.68378,412.90441 L 484.02165,406.45214 L 621.13352,500.01071 L 656.62119,601.63478 L 635.65119,601.63478 L 609.84189,509.6892 C 609.84189,509.6892 514.67025,420.96983 485.63479,416.13062 C 456.5994,411.29142 340.45765,422.5829 340.45765,422.5829 L 211.41126,496.78458 L 169.47118,585.50395 z "
       id="path6445" />
    <path
       style="fill:#8f5902;fill-opacity:1;fill-rule:evenodd;stroke:none;stroke-width:1px;stroke-linecap:butt;stroke-linejoin:miter;stroke-opacity:1"
       d="M 171.08418,591.95629 L 208.18505,498.39765 L 338.8445,419.35676 L 488.86093,412.90441 L 609.84189,504.84999 L 642.10349,601.63478 L 171.08418,591.95629 z "
       id="path6453" />
    <path
       style="fill:#643f02;fill-opacity:1;fill-rule:evenodd;stroke:none;stroke-width:1px;stroke-linecap:butt;stroke-linejoin:miter;stroke-opacity:1"
       d="M 279.32268,449.5328 L 259.80362,593.56936 L 275.12788,594.37586 L 279.32268,449.5328 z "
       id="path6447"
       sodipodi:nodetypes="cccc" />
    <path
       style="fill:#643f02;fill-opacity:1;fill-rule:evenodd;stroke:none;stroke-width:1px;stroke-linecap:butt;stroke-linejoin:miter;stroke-opacity:1"
       d="M 393.91849,416.60311 L 375.94538,595.18243 L 387.23686,593.56936 L 393.91849,416.60311 z "
       id="path6449"
       sodipodi:nodetypes="cccc" />
    <path
       style="fill:#643f02;fill-opacity:1;fill-rule:evenodd;stroke:none;stroke-width:1px;stroke-linecap:butt;stroke-linejoin:miter;stroke-opacity:1"
       d="M 521.3518,434.18485 L 515.37194,599.27242 L 532.4476,600.68981 L 521.3518,434.18485 z "
       id="path6451"
       sodipodi:nodetypes="cccc" />
    <path
       style="fill:none;fill-rule:evenodd;stroke:#8f5902;stroke-width:7.28807163px;stroke-linecap:butt;stroke-linejoin:miter;stroke-opacity:1"
       d="M 409.9091,207.36178 L 420.32062,98.04071"
       id="path6006" />
    <path
       style="fill:#888a85;fill-opacity:1;fill-rule:evenodd;stroke:none;stroke-width:1px;stroke-linecap:butt;stroke-linejoin:miter;stroke-opacity:1"
       d="M 331.82259,592.58846 L 365.66009,558.75097 L 441.14366,544.43508 L 503.61286,574.36828 L 511.42152,600.39712 L 331.82259,592.58846 z "
       id="path6008" />
    <path
       style="fill:#f9a6a6;fill-opacity:1;fill-rule:evenodd;stroke:none;stroke-width:1px;stroke-linecap:butt;stroke-linejoin:miter;stroke-opacity:1"
       d="M 370.86581,342.06101 L 383.22951,339.45814 L 390.06208,343.68785 L 399.17217,344.33853 L 412.18663,338.80739 L 422.92349,347.2668 L 433.33501,349.21891 L 445.37337,346.94139 L 456.11023,351.82185 L 462.9428,353.77396 L 462.75782,344.67349 L 419.01919,332.30024 L 369.56438,339.78348 L 370.86581,342.06101 z "
       id="path5065"
       sodipodi:nodetypes="cccccccccccccc" />
    <path
       style="opacity:0.45581396;fill:#000000;fill-opacity:1;fill-rule:evenodd;stroke:none;stroke-width:1px;stroke-linecap:butt;stroke-linejoin:miter;stroke-opacity:1"
       d="M 369.56438,339.62081 L 417.44818,336.73204 L 463.30246,350.82703 L 463.47592,344.51082 L 418.20577,331.81216 L 369.56438,339.62081 z "
       id="path6036"
       sodipodi:nodetypes="cccccc" />
  </g>
</svg>
