<?xml version="1.0" encoding="UTF-8" ?>
<!DOCTYPE svg PUBLIC "-//W3C//DTD SVG 1.1//EN" "http://www.w3.org/Graphics/SVG/1.1/DTD/svg11.dtd">
<svg width="135pt" height="138pt" viewBox="0 0 135 138" version="1.1" xmlns="http://www.w3.org/2000/svg">
<path fill="#efba3c" stroke="#efba3c" stroke-width="0.09375" d=" M 0.0 0.0 L 135.0 0.0 L 135.0 138.0 L 0.0 138.0 L 0.0 0.0 Z" />
<path fill="#6b4e2d" stroke="#6b4e2d" stroke-width="0.09375" d=" M 19.7 44.8 C 26.9 27.6 45.4 15.9 64.0 17.1 C 77.2 16.5 90.0 22.7 98.9 32.2 C 106.9 41.0 111.5 53.1 110.6 65.0 C 109.8 75.7 104.9 85.8 97.5 93.5 C 90.5 100.3 81.4 104.5 72.1 106.8 C 69.3 111.2 66.1 115.3 63.2 119.6 C 60.7 115.0 57.3 110.9 54.3 106.6 C 39.6 103.6 26.1 93.8 20.0 79.9 C 14.9 68.9 14.8 55.8 19.7 44.8 Z" />
<path fill="#efba3c" stroke="#efba3c" stroke-width="0.09375" d=" M 53.4 21.5 C 62.3 19.6 71.9 20.1 80.3 23.7 C 91.4 28.1 100.5 37.2 104.6 48.4 C 108.3 59.2 107.5 71.7 101.7 81.7 C 95.5 92.9 83.7 101.2 70.9 102.8 C 68.1 106.0 65.9 109.6 63.4 113.0 C 61.1 110.1 59.1 106.9 56.9 104.0 C 56.1 102.8 54.6 102.8 53.4 102.5 C 39.5 99.6 27.1 89.4 22.3 75.9 C 19.5 68.3 18.7 59.9 21.0 52.0 C 24.8 36.7 38.1 24.8 53.4 21.5 Z" />
<path fill="#6b4e2d" stroke="#6b4e2d" stroke-width="0.09375" d=" M 41.3 44.3 C 43.3 44.2 45.3 44.2 47.2 44.2 C 47.3 44.8 47.4 46.1 47.5 46.7 C 52.7 43.0 59.8 44.7 64.1 49.1 C 67.9 44.8 74.7 43.2 79.8 46.1 C 83.7 48.2 86.6 52.4 86.6 56.9 C 86.6 63.8 86.7 70.7 86.6 77.6 C 86.1 80.5 81.7 80.6 80.8 77.9 C 80.4 71.0 80.9 64.1 80.6 57.2 C 80.5 54.1 78.0 51.3 75.0 50.8 C 71.2 50.1 67.2 53.1 67.0 56.9 C 66.5 63.9 67.3 71.0 66.7 78.0 C 65.9 81.0 60.9 80.2 61.0 77.1 C 60.7 70.4 61.1 63.7 60.9 57.0 C 60.8 52.8 56.0 49.6 52.1 51.0 C 49.1 51.9 47.2 54.9 47.3 58.0 C 47.3 65.1 47.3 72.3 47.4 79.4 C 45.3 79.4 43.3 79.5 41.3 79.5 C 41.4 67.7 41.3 56.0 41.3 44.3 Z" />
</svg>
